<svg width="51" height="51" viewBox="0 0 51 51" fill="none" xmlns="http://www.w3.org/2000/svg">
<path d="M41.3751 33.6438C41.3462 33.5803 41.3139 33.5183 41.2784 33.4582C40.5004 32.2328 39.546 31.1288 38.446 30.1817L38.4169 30.1514L38.4016 30.1371L38.3866 30.1221H38.3723C37.7396 29.5188 37.3392 29.1135 37.1709 28.9063C36.8757 28.5794 36.7948 28.112 36.9629 27.7049C37.3383 27.0122 37.7857 26.361 38.2977 25.7622C38.7029 25.2387 39.024 24.8187 39.2609 24.5021C40.9718 22.228 41.7133 20.7747 41.4855 20.1422L41.3975 19.9946C41.273 19.8679 41.1127 19.7826 40.9381 19.7502C40.6277 19.6724 40.3046 19.6597 39.989 19.7129L35.7178 19.7423C35.6203 19.718 35.5179 19.7208 35.4218 19.7503C35.2931 19.7796 35.2282 19.7946 35.2282 19.7946L35.1545 19.8322L35.0958 19.8765C35.0326 19.9183 34.9772 19.9709 34.9322 20.0319C34.8706 20.1108 34.821 20.1982 34.7848 20.2915C34.3414 21.4423 33.8107 22.5576 33.1975 23.6276C32.8315 24.2407 32.4953 24.7722 32.189 25.222C31.9595 25.5735 31.7018 25.9057 31.4185 26.2155C31.243 26.399 31.0547 26.5698 30.8549 26.7265C30.6861 26.8555 30.5583 26.9096 30.4693 26.89C30.3803 26.8696 30.296 26.85 30.217 26.8304C30.0766 26.7399 29.9618 26.6148 29.8837 26.4671C29.791 26.2867 29.7331 26.0904 29.7131 25.8886C29.6838 25.6565 29.6662 25.4565 29.6605 25.2886C29.6562 25.1207 29.6587 24.8825 29.6685 24.5768C29.6783 24.2701 29.6838 24.0622 29.6838 23.9539C29.6838 23.5778 29.6909 23.1699 29.7052 22.7301C29.7202 22.2901 29.7326 21.9418 29.7425 21.685C29.7523 21.4282 29.7573 21.1563 29.7575 20.8692C29.7624 20.6431 29.7449 20.4172 29.7051 20.1946C29.6708 20.0312 29.6186 19.8721 29.5495 19.72C29.4861 19.5738 29.3802 19.45 29.2456 19.3647C29.0919 19.272 28.9245 19.2042 28.7496 19.1638C28.0905 19.032 27.4198 18.9673 26.7476 18.9709C25.5543 18.8707 24.3528 18.9916 23.2034 19.3274C22.9902 19.4401 22.7993 19.5907 22.6401 19.7717C22.4624 19.9894 22.4375 20.1082 22.5654 20.128C23.0544 20.1621 23.509 20.3918 23.8265 20.7652L23.9152 20.9438C24.0131 21.1612 24.0828 21.3903 24.1225 21.6254C24.1955 21.9821 24.24 22.3441 24.2556 22.7078C24.3057 23.3248 24.3057 23.9448 24.2556 24.5618C24.2069 25.0752 24.1601 25.4754 24.1152 25.7623C24.0842 26.0036 24.0168 26.2388 23.9152 26.4598C23.8629 26.5724 23.8032 26.6814 23.7366 26.7861C23.7174 26.8155 23.6923 26.8406 23.6629 26.8598C23.5351 26.9094 23.3991 26.9347 23.262 26.9344C23.0772 26.9163 22.9019 26.844 22.7581 26.7265C22.5313 26.5609 22.3249 26.3691 22.1432 26.155C21.8759 25.8366 21.6352 25.497 21.4233 25.1394C21.1567 24.7046 20.8801 24.1906 20.5934 23.5974L20.3561 23.1674C20.2076 22.891 20.0049 22.4881 19.7482 21.9587C19.4914 21.43 19.2642 20.9184 19.0666 20.4239C18.9994 20.2329 18.875 20.0671 18.7101 19.9494L18.6364 19.905C18.563 19.8531 18.4832 19.8107 18.3991 19.7787C18.2893 19.7341 18.1749 19.7018 18.0579 19.6827L13.9949 19.7121C13.6851 19.6736 13.3745 19.7771 13.1497 19.9937L13.0901 20.0827C13.0556 20.1568 13.0403 20.2384 13.0458 20.32C13.0517 20.4578 13.0818 20.5935 13.1348 20.7208C13.7283 22.1143 14.3734 23.4585 15.0701 24.7536C15.767 26.0494 16.3722 27.0925 16.8858 27.8827C17.4004 28.6737 17.9244 29.4199 18.4578 30.1213C18.992 30.8234 19.3454 31.2734 19.518 31.4713C19.6914 31.6694 19.8274 31.8169 19.9259 31.9156L20.2965 32.2719C20.6226 32.5826 20.9724 32.8675 21.3426 33.1241C21.8345 33.4763 22.3441 33.8032 22.8693 34.1035C23.4836 34.447 24.1391 34.711 24.82 34.8891C25.5235 35.0877 26.2548 35.1702 26.9849 35.1334H28.6902C28.9836 35.1264 29.2637 35.0101 29.4758 34.8074L29.5345 34.7337C29.5852 34.6482 29.6227 34.5556 29.6455 34.4589C29.6815 34.326 29.6991 34.1888 29.6978 34.0512C29.6847 33.6657 29.7169 33.28 29.7938 32.9021C29.8429 32.635 29.9278 32.3758 30.0464 32.1315C30.1308 31.971 30.2383 31.8237 30.3654 31.6943C30.4396 31.6118 30.5245 31.5395 30.6177 31.4793C30.6559 31.4592 30.6954 31.4416 30.736 31.4267C31.0361 31.3626 31.3486 31.4485 31.5739 31.6569C31.9105 31.9045 32.2145 32.1935 32.4786 32.5171C32.7603 32.8584 33.0986 33.2414 33.4935 33.6662C33.8071 34.0163 34.1548 34.3343 34.5314 34.6154L34.8283 34.7931C35.0718 34.9316 35.3307 35.0411 35.5998 35.1193C35.8655 35.2148 36.1512 35.2405 36.4297 35.1939L40.2263 35.1343C40.529 35.1507 40.8306 35.0867 41.1006 34.9487C41.2722 34.8662 41.4051 34.7203 41.4712 34.5417C41.5112 34.3761 41.5139 34.2036 41.4792 34.0369C41.4585 33.9026 41.4236 33.7709 41.3752 33.644L41.3751 33.6438Z" fill="white"/>
</svg>
